<svg width="549" height="36" viewBox="0 0 549 36" fill="none" xmlns="http://www.w3.org/2000/svg">
<path d="M24.9026 27.6429H11.6928L8.65901 35.3077H0L14.2842 0.692308H22.9432L37.1642 35.3077H28.0628L24.9026 27.6429ZM13.7154 22.2033H23.196L18.7085 10.6319H18.1397L13.7154 22.2033Z" fill="white"/>
<path d="M77.6536 0.692308H85.8702V22.8462C85.8702 25.0879 85.491 27.033 84.7325 28.6813C83.9741 30.2967 82.8996 31.6484 81.5091 32.7363C80.1607 33.7912 78.5385 34.5824 76.6423 35.1099C74.7462 35.6374 72.6605 35.9011 70.3851 35.9011C64.9074 35.9011 60.8412 34.8626 58.1866 32.7857C55.5742 30.7088 54.268 27.6758 54.268 23.6868V0.692308H62.927V22.3516C62.927 24.989 63.5379 26.9011 64.7599 28.0879C65.9818 29.2747 67.8991 29.8681 70.5115 29.8681C73.0397 29.8681 74.8515 29.2418 75.9471 27.989C77.0848 26.7033 77.6536 24.8242 77.6536 22.3516V0.692308Z" fill="white"/>
<path d="M105.755 0.692308C106.134 0.659342 106.787 0.609891 107.714 0.543958C108.683 0.478023 109.758 0.428572 110.938 0.395606C112.16 0.329673 113.403 0.280221 114.667 0.247253C115.973 0.214286 117.132 0.197803 118.143 0.197803C122.062 0.197803 125.306 0.642858 127.876 1.53297C130.447 2.42308 132.469 3.65934 133.944 5.24176C135.461 6.79121 136.514 8.63736 137.104 10.7802C137.694 12.8901 137.989 15.1978 137.989 17.7033C137.989 19.978 137.694 22.2033 137.104 24.3791C136.514 26.5549 135.44 28.5 133.881 30.2143C132.364 31.8956 130.236 33.2637 127.497 34.3187C124.801 35.3407 121.324 35.8516 117.069 35.8516C116.394 35.8516 115.531 35.8352 114.477 35.8022C113.424 35.7692 112.349 35.7198 111.254 35.6538C110.158 35.6209 109.105 35.5714 108.093 35.5055C107.082 35.4725 106.303 35.4231 105.755 35.3571V0.692308ZM118.459 6.23077C117.658 6.23077 116.879 6.26374 116.12 6.32967C115.362 6.36264 114.793 6.3956 114.414 6.42857V29.6209C114.582 29.6538 114.835 29.6868 115.172 29.7198C115.509 29.7198 115.847 29.7363 116.184 29.7692C116.563 29.7692 116.921 29.7857 117.258 29.8187C117.595 29.8187 117.869 29.8187 118.08 29.8187C120.524 29.8187 122.462 29.4725 123.895 28.7802C125.369 28.0549 126.465 27.1154 127.181 25.9615C127.898 24.8077 128.361 23.5055 128.572 22.0549C128.782 20.6044 128.888 19.1538 128.888 17.7033C128.888 16.4506 128.782 15.1484 128.572 13.7967C128.403 12.4451 127.961 11.2088 127.244 10.0879C126.57 8.96703 125.538 8.04396 124.147 7.31868C122.757 6.59341 120.861 6.23077 118.459 6.23077Z" fill="white"/>
<path d="M157.495 29.2747H168.682V6.72528H157.495V0.692308H188.591V6.72528H177.341V29.2747H188.591V35.3077H157.495V29.2747Z" fill="white"/>
<path d="M207.844 18C207.844 15.1978 208.181 12.6758 208.855 10.4341C209.529 8.19231 210.562 6.31319 211.952 4.7967C213.343 3.24725 215.07 2.06044 217.135 1.23627C219.242 0.412089 221.707 0 224.53 0C227.564 0 230.134 0.445055 232.241 1.33517C234.348 2.22528 236.054 3.46154 237.36 5.04396C238.709 6.62637 239.678 8.52198 240.268 10.7308C240.9 12.9396 241.216 15.3626 241.216 18C241.216 23.6374 239.825 28.0549 237.044 31.2528C234.306 34.4176 230.134 36 224.53 36C221.496 36 218.905 35.5549 216.756 34.6648C214.649 33.7747 212.921 32.5385 211.573 30.956C210.267 29.3736 209.319 27.478 208.729 25.2692C208.139 23.0604 207.844 20.6374 207.844 18ZM216.945 18C216.945 19.6813 217.03 21.2473 217.198 22.6978C217.409 24.1484 217.767 25.4176 218.273 26.5055C218.82 27.5604 219.579 28.4011 220.548 29.0275C221.559 29.6538 222.887 29.967 224.53 29.967C226.005 29.967 227.227 29.7363 228.196 29.2747C229.165 28.7802 229.944 28.0385 230.534 27.0494C231.124 26.0604 231.525 24.8242 231.735 23.3407C231.988 21.8242 232.114 20.044 232.114 18C232.114 16.3846 232.03 14.8516 231.862 13.4011C231.735 11.9506 231.398 10.6813 230.85 9.59341C230.345 8.5055 229.586 7.64835 228.575 7.02198C227.564 6.36264 226.215 6.03297 224.53 6.03297C221.58 6.03297 219.579 7.03846 218.526 9.04945C217.472 11.0604 216.945 14.044 216.945 18Z" fill="white"/>
<path d="M264.514 29.8681H271.719V6.13187H265.651V12.1154H258.699V0.692308H293.335V12.1154H286.382V6.13187H280.378V29.8681H287.52V35.3077H264.514V29.8681Z" fill="white"/>
<path d="M310.818 18C310.818 15.1978 311.155 12.6758 311.829 10.4341C312.503 8.19231 313.536 6.31319 314.926 4.7967C316.317 3.24725 318.044 2.06044 320.109 1.23627C322.216 0.412089 324.681 0 327.504 0C330.538 0 333.108 0.445055 335.215 1.33517C337.322 2.22528 339.028 3.46154 340.334 5.04396C341.683 6.62637 342.652 8.52198 343.242 10.7308C343.874 12.9396 344.19 15.3626 344.19 18C344.19 23.6374 342.799 28.0549 340.018 31.2528C337.279 34.4176 333.108 36 327.504 36C324.47 36 321.879 35.5549 319.73 34.6648C317.623 33.7747 315.895 32.5385 314.547 30.956C313.241 29.3736 312.293 27.478 311.703 25.2692C311.113 23.0604 310.818 20.6374 310.818 18ZM319.919 18C319.919 19.6813 320.004 21.2473 320.172 22.6978C320.383 24.1484 320.741 25.4176 321.247 26.5055C321.794 27.5604 322.553 28.4011 323.522 29.0275C324.533 29.6538 325.861 29.967 327.504 29.967C328.979 29.967 330.201 29.7363 331.17 29.2747C332.139 28.7802 332.918 28.0385 333.508 27.0494C334.098 26.0604 334.499 24.8242 334.709 23.3407C334.962 21.8242 335.088 20.044 335.088 18C335.088 16.3846 335.004 14.8516 334.836 13.4011C334.709 11.9506 334.372 10.6813 333.824 9.59341C333.319 8.5055 332.56 7.64835 331.549 7.02198C330.538 6.36264 329.189 6.03297 327.504 6.03297C324.554 6.03297 322.553 7.03846 321.499 9.04945C320.446 11.0604 319.919 14.044 319.919 18Z" fill="white"/>
<path d="M386.765 16.8626L387.081 11.4725H386.702L379.623 20.522H378.106L370.711 11.4725H370.395L370.774 16.3187V35.3077H362.558V0.692308H371.343L378.928 10.2857H379.18L386.702 0.692308H395.424V35.3077H386.765V16.8626Z" fill="white"/>
<path d="M414.93 29.2747H426.117V6.72528H414.93V0.692308H446.026V6.72528H434.776V29.2747H446.026V35.3077H414.93V29.2747Z" fill="white"/>
<path d="M466.164 0.692308C466.543 0.659342 467.196 0.609891 468.123 0.543958C469.092 0.478023 470.167 0.428572 471.346 0.395606C472.568 0.329673 473.811 0.280221 475.075 0.247253C476.382 0.214286 477.54 0.197803 478.552 0.197803C482.47 0.197803 485.715 0.642858 488.285 1.53297C490.855 2.42308 492.878 3.65934 494.353 5.24176C495.87 6.79121 496.923 8.63736 497.513 10.7802C498.103 12.8901 498.398 15.1978 498.398 17.7033C498.398 19.978 498.103 22.2033 497.513 24.3791C496.923 26.5549 495.849 28.5 494.29 30.2143C492.773 31.8956 490.645 33.2637 487.906 34.3187C485.209 35.3407 481.733 35.8516 477.477 35.8516C476.803 35.8516 475.939 35.8352 474.886 35.8022C473.832 35.7692 472.758 35.7198 471.662 35.6538C470.567 35.6209 469.513 35.5714 468.502 35.5055C467.491 35.4725 466.711 35.4231 466.164 35.3571V0.692308ZM478.868 6.23077C478.067 6.23077 477.288 6.26374 476.529 6.32967C475.771 6.36264 475.202 6.3956 474.823 6.42857V29.6209C474.991 29.6538 475.244 29.6868 475.581 29.7198C475.918 29.7198 476.255 29.7363 476.592 29.7692C476.972 29.7692 477.33 29.7857 477.667 29.8187C478.004 29.8187 478.278 29.8187 478.488 29.8187C480.932 29.8187 482.871 29.4725 484.303 28.7802C485.778 28.0549 486.874 27.1154 487.59 25.9615C488.306 24.8077 488.77 23.5055 488.98 22.0549C489.191 20.6044 489.296 19.1538 489.296 17.7033C489.296 16.4506 489.191 15.1484 488.98 13.7967C488.812 12.4451 488.369 11.2088 487.653 10.0879C486.979 8.96703 485.947 8.04396 484.556 7.31868C483.166 6.59341 481.269 6.23077 478.868 6.23077Z" fill="white"/>
<path d="M517.903 29.2747H529.091V6.72528H517.903V0.692308H549V6.72528H537.75V29.2747H549V35.3077H517.903V29.2747Z" fill="white"/>
</svg>
