<svg width="179" height="73" viewBox="0 0 179 73" fill="none" xmlns="http://www.w3.org/2000/svg">
<path d="M176.236 15.4479C176.994 16.2067 177.645 17.2365 178.187 18.5374C178.729 19.8383 179 21.0308 179 22.1148V68.9462C179 70.0303 178.621 70.9517 177.862 71.7106C177.103 72.4694 176.181 72.8488 175.097 72.8488H120.461C119.377 72.8488 118.455 72.4694 117.696 71.7106C116.938 70.9517 116.558 70.0303 116.558 68.9462V3.90262C116.558 2.81855 116.938 1.89711 117.696 1.13826C118.455 0.379418 119.377 0 120.461 0H156.885C157.969 0 159.162 0.271012 160.463 0.813045C161.763 1.35508 162.793 2.00551 163.552 2.76435L176.236 15.4479ZM158.186 5.52871V20.814H173.471C173.2 20.028 172.902 19.4724 172.577 19.1472L159.853 6.42306C159.528 6.09784 158.972 5.79972 158.186 5.52871ZM173.796 67.6453V26.0174H156.885C155.801 26.0174 154.88 25.638 154.121 24.8792C153.362 24.1203 152.983 23.1989 152.983 22.1148V5.20349H121.762V67.6453H173.796ZM141.763 34.5544C142.305 34.7712 142.576 35.1777 142.576 35.774V57.8888C142.576 58.485 142.305 58.8916 141.763 59.1084C141.546 59.1626 141.383 59.1897 141.275 59.1897C140.949 59.1897 140.638 59.0677 140.34 58.8238L133.591 52.0349H128.266C127.887 52.0349 127.575 51.9129 127.331 51.669C127.087 51.4251 126.965 51.1134 126.965 50.734V42.9288C126.965 42.5494 127.087 42.2377 127.331 41.9938C127.575 41.7499 127.887 41.6279 128.266 41.6279H133.591L140.34 34.839C140.773 34.4325 141.248 34.3376 141.763 34.5544ZM158.714 62.5638C158.118 62.5638 157.576 62.3606 157.088 61.954C156.519 61.5204 156.201 60.9445 156.133 60.2263C156.065 59.5081 156.262 58.8645 156.723 58.2953C159.433 54.9618 160.788 51.1406 160.788 46.8314C160.788 42.5222 159.433 38.701 156.723 35.3675C156.262 34.7983 156.065 34.1547 156.133 33.4365C156.201 32.7183 156.519 32.1288 157.088 31.6681C157.63 31.2074 158.267 31.0177 158.999 31.099C159.731 31.1803 160.313 31.5055 160.747 32.0746C164.243 36.3838 165.991 41.3027 165.991 46.8314C165.991 52.3601 164.243 57.279 160.747 61.5882C160.232 62.2386 159.555 62.5638 158.714 62.5638ZM150.137 56.5473C149.486 56.5473 148.89 56.3169 148.348 55.8562C147.833 55.3684 147.562 54.7654 147.535 54.0472C147.508 53.329 147.752 52.6989 148.267 52.1568C149.676 50.612 150.381 48.8369 150.381 46.8314C150.381 44.8259 149.676 43.0507 148.267 41.506C147.752 40.9639 147.508 40.3338 147.535 39.6156C147.562 38.8974 147.833 38.2944 148.348 37.8066C148.863 37.3188 149.486 37.0884 150.218 37.1155C150.95 37.1426 151.56 37.4136 152.048 37.9286C154.405 40.449 155.584 43.4166 155.584 46.8314C155.584 50.2462 154.405 53.2138 152.048 55.7342C151.505 56.2763 150.869 56.5473 150.137 56.5473Z" fill="white"/>
<path d="M18.2122 9.10611H39.4124V18.2122H27.3183V51.6487H27.176C26.7966 55.0635 25.3264 57.9328 22.7653 60.2568C20.2042 62.5808 17.1688 63.7427 13.6592 63.7427C9.86493 63.7427 6.63988 62.4148 3.98392 59.7588C1.32796 57.1029 0 53.8778 0 50.0836C0 46.2894 1.32796 43.0643 3.98392 40.4083C6.63988 37.7524 9.86493 36.4244 13.6592 36.4244C15.2717 36.4244 16.7894 36.709 18.2122 37.2781V9.10611Z" fill="white"/>
<path d="M90.8544 35.4745L82.3091 26.9292C81.9614 26.5815 81.5603 26.4077 81.1056 26.4077C80.6509 26.4077 80.2497 26.5815 79.902 26.9292C79.5543 27.2769 79.3805 27.6781 79.3805 28.1328C79.3805 28.5875 79.5543 28.9887 79.902 29.3364L87.2437 36.6781L79.902 44.0599C79.5543 44.4076 79.3805 44.8088 79.3805 45.2635C79.3805 45.7181 79.5543 46.1193 79.902 46.467C80.0625 46.6275 80.2564 46.7478 80.4837 46.8281C80.7111 46.9083 80.9184 46.9484 81.1056 46.9484C81.2661 46.9484 81.46 46.9083 81.6873 46.8281C81.9146 46.7478 82.1219 46.6275 82.3091 46.467L90.8544 37.8816C91.2021 37.5339 91.376 37.1328 91.376 36.6781C91.376 36.2234 91.2021 35.8222 90.8544 35.4745ZM78.8589 35.4745L70.3137 26.9292C69.966 26.5815 69.5648 26.4077 69.1101 26.4077C68.6554 26.4077 68.2542 26.5815 67.9066 26.9292C67.5589 27.2769 67.385 27.6781 67.385 28.1328C67.385 28.5875 67.5589 28.9887 67.9066 29.3364L75.2884 36.6781L67.9066 44.0599C67.5589 44.4076 67.385 44.8088 67.385 45.2635C67.385 45.7181 67.5589 46.1193 67.9066 46.467C68.0938 46.6275 68.2743 46.7478 68.4482 46.8281C68.622 46.9083 68.8427 46.9484 69.1101 46.9484C69.3776 46.9484 69.5982 46.9083 69.7721 46.8281C69.9459 46.7478 70.1264 46.6275 70.3137 46.467L78.8589 37.8816C79.2066 37.5339 79.3805 37.1328 79.3805 36.6781C79.3805 36.2234 79.2066 35.8222 78.8589 35.4745Z" fill="white"/>
</svg>
