<svg width="180" height="51" viewBox="0 0 180 51" fill="none" xmlns="http://www.w3.org/2000/svg">
<path d="M8.16477 47.4238H3.83371L2.83902 49.9369H0L4.68335 38.5876H7.52237L12.185 49.9369H9.20091L8.16477 47.4238ZM4.49684 45.6404H7.60526L6.13394 41.8465H5.94744L4.49684 45.6404Z" fill="white"/>
<path d="M25.4602 38.5876H28.1542V45.8511C28.1542 46.5861 28.0298 47.2239 27.7811 47.7643C27.5325 48.2939 27.1802 48.7371 26.7243 49.0938C26.2822 49.4397 25.7503 49.6991 25.1286 49.872C24.507 50.045 23.8231 50.1314 23.0771 50.1314C21.2811 50.1314 19.9479 49.791 19.0776 49.11C18.221 48.4291 17.7928 47.4346 17.7928 46.1268V38.5876H20.6318V45.689C20.6318 46.5537 20.8321 47.1806 21.2328 47.5697C21.6334 47.9589 22.262 48.1534 23.1185 48.1534C23.9474 48.1534 24.5415 47.9481 24.9007 47.5373C25.2737 47.1158 25.4602 46.4997 25.4602 45.689V38.5876Z" fill="white"/>
<path d="M34.6737 38.5876C34.7981 38.5768 35.0122 38.5606 35.3161 38.5389C35.6339 38.5173 35.9862 38.5011 36.373 38.4903C36.7736 38.4687 37.1812 38.4525 37.5957 38.4417C38.0239 38.4309 38.4038 38.4254 38.7354 38.4254C40.0202 38.4254 41.084 38.5714 41.9267 38.8632C42.7694 39.155 43.4326 39.5604 43.9161 40.0792C44.4134 40.5872 44.7588 41.1925 44.9522 41.8951C45.1457 42.5869 45.2424 43.3435 45.2424 44.165C45.2424 44.9108 45.1457 45.6404 44.9522 46.3538C44.7588 47.0671 44.4065 47.7049 43.8954 48.2669C43.398 48.8182 42.7004 49.2667 41.8024 49.6126C40.9182 49.9477 39.7785 50.1152 38.3831 50.1152C38.1621 50.1152 37.8789 50.1098 37.5335 50.099C37.1881 50.0882 36.8358 50.072 36.4766 50.0504C36.1174 50.0396 35.772 50.0234 35.4405 50.0017C35.1089 49.9909 34.8533 49.9747 34.6737 49.9531V38.5876ZM38.839 40.4035C38.5765 40.4035 38.3209 40.4143 38.0723 40.4359C37.8236 40.4467 37.6371 40.4575 37.5128 40.4683V48.0724C37.568 48.0832 37.6509 48.094 37.7614 48.1048C37.872 48.1048 37.9825 48.1102 38.093 48.121C38.2173 48.121 38.3348 48.1264 38.4453 48.1372C38.5558 48.1372 38.6456 48.1372 38.7147 48.1372C39.516 48.1372 40.1515 48.0237 40.6212 47.7967C41.1047 47.5589 41.4639 47.2509 41.6988 46.8726C41.9336 46.4943 42.0856 46.0673 42.1547 45.5917C42.2237 45.1161 42.2583 44.6405 42.2583 44.165C42.2583 43.7542 42.2237 43.3273 42.1547 42.8841C42.0994 42.4409 41.9543 42.0356 41.7195 41.6681C41.4984 41.3006 41.16 40.998 40.7041 40.7602C40.2482 40.5224 39.6265 40.4035 38.839 40.4035Z" fill="white"/>
<path d="M51.6376 47.9589H55.3055V40.5656H51.6376V38.5876H61.8332V40.5656H58.1446V47.9589H61.8332V49.9369H51.6376V47.9589Z" fill="white"/>
<path d="M68.1456 44.2622C68.1456 43.3435 68.2561 42.5166 68.4771 41.7816C68.6982 41.0466 69.0366 40.4305 69.4925 39.9333C69.9484 39.4253 70.5149 39.0361 71.1918 38.7659C71.8826 38.4957 72.6908 38.3606 73.6164 38.3606C74.6111 38.3606 75.4538 38.5065 76.1446 38.7984C76.8353 39.0902 77.3948 39.4955 77.8231 40.0144C78.2652 40.5332 78.5829 41.1547 78.7763 41.8789C78.9836 42.6031 79.0872 43.3975 79.0872 44.2622C79.0872 46.1106 78.6313 47.5589 77.7195 48.6074C76.8215 49.645 75.4538 50.1639 73.6164 50.1639C72.6217 50.1639 71.772 50.018 71.0675 49.7261C70.3767 49.4343 69.8103 49.0289 69.3682 48.5101C68.9399 47.9913 68.6291 47.3698 68.4357 46.6456C68.2423 45.9214 68.1456 45.1269 68.1456 44.2622ZM71.1296 44.2622C71.1296 44.8135 71.1573 45.3269 71.2125 45.8025C71.2816 46.2781 71.399 46.6942 71.5648 47.0509C71.7444 47.3968 71.9931 47.6724 72.3108 47.8778C72.6424 48.0832 73.0776 48.1859 73.6164 48.1859C74.0999 48.1859 74.5005 48.1102 74.8183 47.9589C75.136 47.7967 75.3916 47.5535 75.585 47.2293C75.7785 46.905 75.9097 46.4997 75.9788 46.0133C76.0617 45.5161 76.1031 44.9324 76.1031 44.2622C76.1031 43.7326 76.0755 43.23 76.0202 42.7544C75.9788 42.2788 75.8682 41.8627 75.6887 41.506C75.5229 41.1493 75.2742 40.8683 74.9426 40.6629C74.6111 40.4467 74.169 40.3386 73.6164 40.3386C72.6493 40.3386 71.9931 40.6683 71.6477 41.3276C71.3023 41.987 71.1296 42.9652 71.1296 44.2622Z" fill="white"/>
<path d="M86.7258 48.1534H89.0882V40.371H87.0988V42.3329H84.8193V38.5876H96.1754V42.3329H93.8959V40.371H91.9272V48.1534H94.2689V49.9369H86.7258V48.1534Z" fill="white"/>
<path d="M101.908 44.2622C101.908 43.3435 102.018 42.5166 102.239 41.7816C102.46 41.0466 102.799 40.4305 103.254 39.9333C103.71 39.4253 104.277 39.0361 104.954 38.7659C105.645 38.4957 106.453 38.3606 107.378 38.3606C108.373 38.3606 109.216 38.5065 109.907 38.7984C110.597 39.0902 111.157 39.4955 111.585 40.0144C112.027 40.5332 112.345 41.1547 112.538 41.8789C112.746 42.6031 112.849 43.3975 112.849 44.2622C112.849 46.1106 112.393 47.5589 111.481 48.6074C110.583 49.645 109.216 50.1639 107.378 50.1639C106.384 50.1639 105.534 50.018 104.829 49.7261C104.139 49.4343 103.572 49.0289 103.13 48.5101C102.702 47.9913 102.391 47.3698 102.198 46.6456C102.004 45.9214 101.908 45.1269 101.908 44.2622ZM104.892 44.2622C104.892 44.8135 104.919 45.3269 104.974 45.8025C105.044 46.2781 105.161 46.6942 105.327 47.0509C105.506 47.3968 105.755 47.6724 106.073 47.8778C106.404 48.0832 106.84 48.1859 107.378 48.1859C107.862 48.1859 108.262 48.1102 108.58 47.9589C108.898 47.7967 109.154 47.5535 109.347 47.2293C109.54 46.905 109.672 46.4997 109.741 46.0133C109.824 45.5161 109.865 44.9324 109.865 44.2622C109.865 43.7326 109.837 43.23 109.782 42.7544C109.741 42.2788 109.63 41.8627 109.451 41.506C109.285 41.1493 109.036 40.8683 108.705 40.6629C108.373 40.4467 107.931 40.3386 107.378 40.3386C106.411 40.3386 105.755 40.6683 105.41 41.3276C105.064 41.987 104.892 42.9652 104.892 44.2622Z" fill="white"/>
<path d="M126.808 43.8893L126.912 42.1221H126.787L124.467 45.0891H123.969L121.545 42.1221H121.441L121.565 43.711V49.9369H118.871V38.5876H121.752L124.239 41.733H124.321L126.787 38.5876H129.647V49.9369H126.808V43.8893Z" fill="white"/>
<path d="M136.042 47.9589H139.71V40.5656H136.042V38.5876H146.238V40.5656H142.549V47.9589H146.238V49.9369H136.042V47.9589Z" fill="white"/>
<path d="M152.841 38.5876C152.965 38.5768 153.179 38.5606 153.483 38.5389C153.801 38.5173 154.153 38.5011 154.54 38.4903C154.94 38.4687 155.348 38.4525 155.762 38.4417C156.191 38.4309 156.571 38.4254 156.902 38.4254C158.187 38.4254 159.251 38.5714 160.094 38.8632C160.936 39.155 161.599 39.5604 162.083 40.0792C162.58 40.5872 162.926 41.1925 163.119 41.8951C163.312 42.5869 163.409 43.3435 163.409 44.165C163.409 44.9108 163.312 45.6404 163.119 46.3538C162.926 47.0671 162.573 47.7049 162.062 48.2669C161.565 48.8182 160.867 49.2667 159.969 49.6126C159.085 49.9477 157.945 50.1152 156.55 50.1152C156.329 50.1152 156.046 50.1098 155.7 50.099C155.355 50.0882 155.003 50.072 154.643 50.0504C154.284 50.0396 153.939 50.0234 153.607 50.0017C153.276 49.9909 153.02 49.9747 152.841 49.9531V38.5876ZM157.006 40.4035C156.743 40.4035 156.488 40.4143 156.239 40.4359C155.99 40.4467 155.804 40.4575 155.68 40.4683V48.0724C155.735 48.0832 155.818 48.094 155.928 48.1048C156.039 48.1048 156.149 48.1102 156.26 48.121C156.384 48.121 156.502 48.1264 156.612 48.1372C156.723 48.1372 156.812 48.1372 156.881 48.1372C157.683 48.1372 158.318 48.0237 158.788 47.7967C159.271 47.5589 159.631 47.2509 159.866 46.8726C160.1 46.4943 160.252 46.0673 160.321 45.5917C160.391 45.1161 160.425 44.6405 160.425 44.165C160.425 43.7542 160.391 43.3273 160.321 42.8841C160.266 42.4409 160.121 42.0356 159.886 41.6681C159.665 41.3006 159.327 40.998 158.871 40.7602C158.415 40.5224 157.793 40.4035 157.006 40.4035Z" fill="white"/>
<path d="M169.804 47.9589H173.472V40.5656H169.804V38.5876H180V40.5656H176.311V47.9589H180V49.9369H169.804V47.9589Z" fill="white"/>
<path d="M57.7822 5.06487C58.031 5.31367 58.2442 5.65133 58.4219 6.07785C58.5996 6.50436 58.6885 6.89533 58.6885 7.25076V22.6053C58.6885 22.9607 58.5641 23.2629 58.3153 23.5117C58.0665 23.7605 57.7644 23.8849 57.409 23.8849H39.4953C39.1399 23.8849 38.8378 23.7605 38.589 23.5117C38.3402 23.2629 38.2158 22.9607 38.2158 22.6053V1.27955C38.2158 0.924115 38.3402 0.622003 38.589 0.373201C38.8378 0.124399 39.1399 0 39.4953 0H51.4377C51.7932 0 52.1841 0.0888565 52.6107 0.266572C53.0372 0.444288 53.3748 0.657543 53.6236 0.906345L57.7822 5.06487ZM51.8643 1.81269V6.82425H56.8758C56.787 6.56656 56.6892 6.3844 56.5826 6.27777L52.4107 2.10592C52.3041 1.99929 52.1219 1.90155 51.8643 1.81269ZM56.9824 22.1788V8.53031H51.4377C51.0823 8.53031 50.7802 8.40591 50.5314 8.15711C50.2826 7.90831 50.1582 7.60619 50.1582 7.25076V1.70606H39.9218V22.1788H56.9824ZM46.4795 11.3293C46.6572 11.4004 46.7461 11.5337 46.7461 11.7292V18.9799C46.7461 19.1754 46.6572 19.3087 46.4795 19.3798C46.4084 19.3976 46.3551 19.4065 46.3196 19.4065C46.2129 19.4065 46.1107 19.3665 46.013 19.2865L43.8004 17.0606H42.0544C41.93 17.0606 41.8278 17.0206 41.7478 16.9407C41.6679 16.8607 41.6279 16.7585 41.6279 16.6341V14.075C41.6279 13.9506 41.6679 13.8484 41.7478 13.7685C41.8278 13.6885 41.93 13.6485 42.0544 13.6485H43.8004L46.013 11.4226C46.1552 11.2893 46.3107 11.2582 46.4795 11.3293ZM52.0375 20.5127C51.842 20.5127 51.6643 20.4461 51.5044 20.3128C51.3178 20.1706 51.2134 19.9818 51.1912 19.7463C51.1689 19.5109 51.2334 19.2998 51.3844 19.1132C52.273 18.0203 52.7173 16.7674 52.7173 15.3546C52.7173 13.9417 52.273 12.6888 51.3844 11.5959C51.2334 11.4093 51.1689 11.1983 51.1912 10.9628C51.2134 10.7273 51.3178 10.534 51.5044 10.383C51.6821 10.2319 51.8909 10.1697 52.1308 10.1964C52.3707 10.223 52.5618 10.3297 52.704 10.5163C53.8502 11.9291 54.4233 13.5419 54.4233 15.3546C54.4233 17.1673 53.8502 18.78 52.704 20.1928C52.5351 20.4061 52.313 20.5127 52.0375 20.5127ZM49.2252 18.5401C49.0119 18.5401 48.8164 18.4646 48.6387 18.3135C48.4699 18.1536 48.381 17.9559 48.3722 17.7204C48.3633 17.4849 48.4432 17.2783 48.6121 17.1006C49.0741 16.5941 49.3052 16.0121 49.3052 15.3546C49.3052 14.697 49.0741 14.115 48.6121 13.6085C48.4432 13.4308 48.3633 13.2242 48.3722 12.9887C48.381 12.7533 48.4699 12.5555 48.6387 12.3956C48.8076 12.2357 49.0119 12.1601 49.2518 12.169C49.4918 12.1779 49.6917 12.2668 49.8516 12.4356C50.6247 13.262 51.0112 14.2349 51.0112 15.3546C51.0112 16.4742 50.6247 17.4471 49.8516 18.2735C49.6739 18.4512 49.4651 18.5401 49.2252 18.5401Z" fill="white"/>
<path d="M5.97122 2.9856H12.9221V5.9712H8.95683V16.934H8.91017C8.78577 18.0536 8.30373 18.9944 7.46402 19.7563C6.62431 20.5183 5.62912 20.8992 4.47841 20.8992C3.2344 20.8992 2.17701 20.4638 1.3062 19.593C0.435397 18.7222 0 17.6648 0 16.4208C0 15.1768 0.435397 14.1194 1.3062 13.2486C2.17701 12.3778 3.2344 11.9424 4.47841 11.9424C5.00712 11.9424 5.50471 12.0357 5.97122 12.2223V2.9856Z" fill="white"/>
<path d="M29.7883 11.6309L26.9865 8.8292C26.8725 8.7152 26.741 8.6582 26.5919 8.6582C26.4429 8.6582 26.3113 8.7152 26.1973 8.8292C26.0833 8.9432 26.0263 9.07473 26.0263 9.22381C26.0263 9.37289 26.0833 9.50442 26.1973 9.61842L28.6044 12.0255L26.1973 14.4458C26.0833 14.5598 26.0263 14.6913 26.0263 14.8404C26.0263 14.9895 26.0833 15.121 26.1973 15.235C26.2499 15.2876 26.3135 15.3271 26.3881 15.3534C26.4626 15.3797 26.5305 15.3929 26.5919 15.3929C26.6445 15.3929 26.7081 15.3797 26.7827 15.3534C26.8572 15.3271 26.9252 15.2876 26.9865 15.235L29.7883 12.4201C29.9023 12.3061 29.9593 12.1746 29.9593 12.0255C29.9593 11.8765 29.9023 11.7449 29.7883 11.6309ZM25.8553 11.6309L23.0536 8.8292C22.9396 8.7152 22.8081 8.6582 22.659 8.6582C22.5099 8.6582 22.3784 8.7152 22.2644 8.8292C22.1504 8.9432 22.0934 9.07473 22.0934 9.22381C22.0934 9.37289 22.1504 9.50442 22.2644 9.61842L24.6847 12.0255L22.2644 14.4458C22.1504 14.5598 22.0934 14.6913 22.0934 14.8404C22.0934 14.9895 22.1504 15.121 22.2644 15.235C22.3258 15.2876 22.385 15.3271 22.442 15.3534C22.499 15.3797 22.5713 15.3929 22.659 15.3929C22.7467 15.3929 22.819 15.3797 22.876 15.3534C22.933 15.3271 22.9922 15.2876 23.0536 15.235L25.8553 12.4201C25.9693 12.3061 26.0263 12.1746 26.0263 12.0255C26.0263 11.8765 25.9693 11.7449 25.8553 11.6309Z" fill="white"/>
</svg>
