<svg width="30" height="48" viewBox="0 0 30 48" fill="none" xmlns="http://www.w3.org/2000/svg">
<path d="M28.5124 16.9512C27.6907 16.9512 27.0248 17.6175 27.0248 18.4396V24.889C27.0248 31.5226 21.6302 36.9198 15 36.9198C8.36975 36.9198 2.97521 31.5226 2.97521 24.889V18.4396C2.97521 17.6175 2.30926 16.9512 1.4876 16.9512C0.66595 16.9512 0 17.6175 0 18.4396V24.889C0 32.6621 5.93752 39.0729 13.5124 39.8231V45.0233H6.75124C5.92959 45.0233 5.26364 45.6901 5.26364 46.5117C5.26364 47.3342 5.92959 48 6.75124 48H23.2488C24.0704 48 24.7364 47.3342 24.7364 46.5117C24.7364 45.6901 24.0704 45.0233 23.2488 45.0233H16.4876V39.8226C24.0625 39.0724 30 32.6617 30 24.8885V18.4391C30 17.617 29.334 16.9512 28.5124 16.9512ZM15 34.2547C20.2745 34.2547 24.5509 29.9757 24.5509 24.6985V9.55565C24.5509 4.27849 20.2745 0 15 0C9.72545 0 5.44909 4.27849 5.44909 9.55565V24.6985C5.44909 29.9757 9.72545 34.2547 15 34.2547Z" fill="black"/>
</svg>
