<svg width="45" height="71" viewBox="0 0 45 71" fill="none" xmlns="http://www.w3.org/2000/svg">
<path d="M0.0314339 0.00337846C1.20967 -0.00422308 2.39171 0.00337846 3.57375 0.00337846C3.59656 1.23103 3.60796 2.45867 3.62696 3.68252C4.83181 3.70153 6.04045 3.72053 7.2453 3.74714C7.2453 4.91777 7.24149 6.09601 7.37072 7.26285C8.56036 7.5023 9.78041 7.4947 10.9891 7.5061C10.9548 8.70334 10.9472 9.89678 10.9434 11.094C9.78421 11.0712 8.62497 11.0674 7.46574 11.0712C7.46194 9.88538 7.46194 8.69574 7.32891 7.5175C6.10886 7.26665 4.85841 7.29706 3.62316 7.27805C3.63076 24.6248 3.58135 41.9753 3.64597 59.322C4.84701 59.341 6.04805 59.3486 7.2491 59.3448C7.24529 60.5192 7.2643 61.6975 7.30611 62.8719C4.87742 62.9023 2.44872 62.8985 0.0200321 62.8757C0.00102822 41.9183 -0.0179761 20.9608 0.0314339 0.00337846Z" fill="#888888"/>
<path d="M11.0651 11.1814C12.2775 11.1814 13.4862 11.1814 14.6986 11.1662C14.6758 12.3445 14.6644 13.5189 14.6644 14.6972C13.4748 14.6706 12.2851 14.6706 11.0993 14.6972C11.0993 13.5227 11.0879 12.3521 11.0651 11.1814Z" fill="#888888"/>
<path d="M14.8354 14.777C16.0289 14.796 17.2223 14.815 18.4158 14.8226C18.4082 16.0198 18.4158 17.2133 18.4386 18.4105C17.2375 18.3991 16.0365 18.3953 14.8393 18.4029C14.8431 17.1943 14.8431 15.9856 14.8354 14.777Z" fill="#888888"/>
<path d="M18.5336 18.5397C19.7232 18.5511 20.9129 18.5511 22.1025 18.5321C22.0797 19.7332 22.0873 20.9342 22.1215 22.1353C20.9243 22.1049 19.727 22.0973 18.526 22.1049C18.545 20.9152 18.5488 19.7294 18.5336 18.5397Z" fill="#888888"/>
<path d="M22.2203 22.2873C23.4176 22.3063 24.6186 22.3101 25.8197 22.3063C25.7893 23.5073 25.7779 24.7084 25.7741 25.9094C24.6072 25.879 23.4404 25.8638 22.2735 25.86C22.2773 24.6704 22.2621 23.4769 22.2203 22.2873Z" fill="#888888"/>
<path d="M25.9033 25.9816C27.1082 25.993 28.313 25.993 29.5178 25.9778C29.5064 27.1561 29.5026 28.3381 29.5141 29.5202C28.3168 29.4974 27.1196 29.4936 25.9261 29.5012C25.9299 28.3305 25.9223 27.1561 25.9033 25.9816Z" fill="#888888"/>
<path d="M29.6622 29.6038C30.8595 29.6152 32.0605 29.6152 33.2578 29.6038C33.2502 30.8162 33.2464 32.0249 33.2616 33.2373C32.0643 33.2297 30.8633 33.2335 29.6622 33.2411C29.6698 32.0287 29.6736 30.8162 29.6622 29.6038Z" fill="#888888"/>
<path d="M33.3832 33.3627C34.5652 33.378 35.7511 33.3817 36.9331 33.3665C36.9103 34.56 36.9141 35.7534 36.9483 36.9469C35.7549 36.9393 34.5653 36.9393 33.3756 36.9545C33.3908 35.7572 33.3946 34.56 33.3832 33.3627Z" fill="#888888"/>
<path d="M37.0356 37.1179C38.2291 37.1179 39.4225 37.1103 40.6198 37.0913C40.6084 38.3037 40.6084 39.5162 40.6198 40.7286C39.4453 40.702 38.2747 40.6868 37.1041 40.6868C37.1041 39.4972 37.0851 38.3075 37.0356 37.1179Z" fill="#888888"/>
<path d="M40.8061 40.797C41.9691 40.8123 43.1359 40.8084 44.3028 40.7894C44.3294 43.2067 44.3294 45.624 44.3028 48.0451C39.377 48.0945 34.455 48.0451 29.533 48.0679C29.5102 49.307 29.4988 50.546 29.4798 51.7851C28.2977 51.7623 27.1157 51.7547 25.9337 51.7585C25.8805 49.3374 25.8919 46.9163 25.9223 44.4952C30.8443 44.347 35.7701 44.6016 40.6959 44.4686C40.7225 43.2447 40.7491 42.0209 40.8061 40.797Z" fill="#888888"/>
<path d="M14.8392 48.1781C16.0327 48.1933 17.2261 48.1971 18.4158 48.1933C18.4158 49.3906 18.4196 50.5916 18.4348 51.7927C17.2375 51.7775 16.0403 51.7737 14.843 51.7775C14.8506 50.5764 14.8506 49.3754 14.8392 48.1781Z" fill="#888888"/>
<path d="M11.0916 51.9219C12.2888 51.9447 13.4861 51.9485 14.6833 51.9409C14.6719 53.1381 14.6681 54.3354 14.6795 55.5364C13.4823 55.5174 12.2812 55.5212 11.084 55.5402C11.0954 54.3354 11.0992 53.1267 11.0916 51.9219Z" fill="#888888"/>
<path d="M18.5336 51.9295C19.7232 51.9485 20.9129 51.9561 22.1025 51.9523C22.1253 54.3392 21.8479 56.7603 22.3002 59.1243C23.4556 59.2536 24.6224 59.322 25.7893 59.3258C25.7931 61.7355 25.8083 64.1414 25.7551 66.551C24.592 66.532 23.429 66.532 22.2622 66.5358C22.2204 64.111 22.3762 61.6861 22.1405 59.2688C20.9471 59.1053 19.7384 59.0521 18.5374 59.1053C18.5374 56.7147 18.5184 54.3202 18.5336 51.9295Z" fill="#888888"/>
<path d="M29.6697 51.9409C30.8556 51.9523 32.0452 51.9485 33.2349 51.9295C33.2767 54.3278 33.2577 56.7261 33.2425 59.1243C32.0528 59.1053 30.867 59.1015 29.6773 59.1167C29.6469 56.7261 29.6583 54.3316 29.6697 51.9409Z" fill="#888888"/>
<path d="M7.44681 55.6238C8.62505 55.639 9.80709 55.639 10.9853 55.6238C10.9625 56.7983 10.9587 57.9727 10.9625 59.1472C9.78808 59.1472 8.61365 59.1548 7.43921 59.1738C7.45441 57.9917 7.45441 56.8059 7.44681 55.6238Z" fill="#888888"/>
<path d="M33.3794 59.2232C34.5615 59.2422 35.7435 59.246 36.9255 59.2422C36.9027 61.6709 36.9217 64.0958 36.9027 66.5245C35.7359 66.5207 34.5653 66.5283 33.3984 66.5435C33.3604 64.1034 33.3718 61.6633 33.3794 59.2232Z" fill="#888888"/>
<path d="M25.8994 66.6765C28.3547 66.6575 30.81 66.6613 33.2615 66.6803C33.2501 67.8547 33.2501 69.033 33.2577 70.2074C30.81 70.2074 28.3623 70.2264 25.9146 70.1998C25.9146 69.0254 25.9108 67.8509 25.8994 66.6765Z" fill="#888888"/>
</svg>
